# xmcd
#
# Track frame offsets: 
#        150
#        13250
#        26525
#        39042
#        51782
#        64912
#        77412
#        89925
#        102675
#        115725
#        128225
#        141025
#        152787
#        165377
#        177677
#        190600
#        203175
#        214875
#        226322
#        237537
#        249687
#        261525
#        274287
#        286872
#        300220
#
# Disc length: 4173 seconds
#
# Revision: 0
# Processed by: cddbd v1.4PL0 Copyright (c) Steve Scherf et al.
# Submitted via: ExactAudioCopy v0.90b3
#
DISCID=6c104b19
DTITLE=Roy Acuff - The King Of Country Music (1936-1947)
DYEAR=1900
DGENRE=Country
TTITLE0=Wabash Cannon Ball
TTITLE1=Great Speckle Bird
TTITLE2=Freight Train Blues
TTITLE3=Beautiful Brown Eyes
TTITLE4=Living On The Mountain, Baby Mine
TTITLE5=Eyes Are Watching You
TTITLE6=The Streamlined Cannon Ball
TTITLE7=The Precious Jewel
TTITLE8=Mule Skinner Blues (Blue Yodel No. 8)
TTITLE9=Be Honest With Me
TTITLE10=Worried Mind
TTITLE11=Brother, Take Warning
TTITLE12=Wreck On The Highway
TTITLE13=I'll Reap My Harvest In Heaven
TTITLE14=Night Train To Memphis
TTITLE15=The Prodigal Son
TTITLE16=Low And Lonely
TTITLE17=Write Me, Sweetheart
TTITLE18=Not A Word From Home
TTITLE19=I'll Forgive You, But I Can't Forget
TTITLE20=Wait For The Light To Shine
TTITLE21=We Live In Two Different Worlds
TTITLE22=Pins And Needles
TTITLE23=Waiting For My Call To Glory
TTITLE24=Our Own Jole Blon
EXTD=
EXTT0=
EXTT1=
EXTT2=
EXTT3=
EXTT4=
EXTT5=
EXTT6=
EXTT7=
EXTT8=
EXTT9=
EXTT10=
EXTT11=
EXTT12=
EXTT13=
EXTT14=
EXTT15=
EXTT16=
EXTT17=
EXTT18=
EXTT19=
EXTT20=
EXTT21=
EXTT22=
EXTT23=
EXTT24=
PLAYORDER=
